<svg xmlns="http://www.w3.org/2000/svg" version="1.1" xmlns:xlink="http://www.w3.org/1999/xlink" xmlns:svgjs="http://svgjs.dev/svgjs" width="1000" height="750" viewBox="0 0 1000 750"><rect width="1000" height="750" fill="#333366"></rect><g transform="matrix(0.834,0,0,0.834,82.49454545454546,242.28157375805466)"><svg viewBox="0 0 396 126" data-background-color="#333366" preserveAspectRatio="xMidYMid meet" height="318" width="1000" xmlns="http://www.w3.org/2000/svg" xmlns:xlink="http://www.w3.org/1999/xlink"><g id="tight-bounds" transform="matrix(1,0,0,1,0.2400000000000091,0.053412765957460806)"><svg viewBox="0 0 395.52 125.89317446808509" height="125.89317446808509" width="395.52"><g><svg viewBox="0 0 395.52 125.89317446808509" height="125.89317446808509" width="395.52"><g><svg viewBox="0 0 395.52 125.89317446808509" height="125.89317446808509" width="395.52"><g id="textblocktransform"><svg viewBox="0 0 395.52 125.89317446808509" height="125.89317446808509" width="395.52" id="textblock"><g><svg viewBox="0 0 395.52 125.89317446808509" height="125.89317446808509" width="395.52"><g transform="matrix(1,0,0,1,0,0)"><svg width="395.52" viewBox="0 -50 293.75 90.5" height="125.89317446808509" data-palette-color="#ffff33"><svg></svg><svg></svg><g class="undefined-text-0" data-fill-palette-color="primary" id="text-0"><path xmlns="http://www.w3.org/2000/svg" d="M31.25-6.25h-31.25v-43.75h31.25v6.25h6.25v6.25h6.25v18.75h-6.25v6.25h-6.25zM12.5-43.75v31.25h12.5v-6.25h6.25v-18.75h-6.25v-6.25zM93.75-6.25h-43.75v-43.75h43.75v6.25h-31.25v12.5h25v6.25h-25v12.5h31.25zM125-6.25h-6.25v-6.25h-6.25v-6.25h-6.25v-6.25h-6.25v-25h12.5v18.75h6.25v6.25h6.25v-6.25h6.25v-18.75h12.5v25h-6.25v6.25h-6.25v6.25h-6.25z" fill="#ffff33" fill-rule="nonzero" stroke="none" stroke-width="1" stroke-linecap="butt" stroke-linejoin="miter" stroke-miterlimit="10" stroke-dasharray="" stroke-dashoffset="0" font-family="none" font-weight="none" font-size="none" text-anchor="none" style="mix-blend-mode: normal" data-fill-palette-color="primary" opacity="1"></path><path xmlns="http://www.w3.org/2000/svg" d="M43.75 40.5h-43.75v-12.5h6.25v-6.25h6.25v-6.25h6.25v-6.25h6.25v-6.25h-25v-6.25h43.75v12.5h-6.25v6.25h-6.25v6.25h-6.25v6.25h-6.25v6.25h25zM87.5 40.5h-31.25v-6.25h-6.25v-37.5h12.5v37.5h18.75v-37.5h12.5v37.5h-6.25zM112.5 40.5h-12.5v-43.75h12.5v6.25h6.25v6.25h6.25v6.25h6.25v-18.75h12.5v43.75h-12.5v-12.5h-6.25v-6.25h-6.25v-6.25h-6.25zM193.75 40.5h-37.5v-6.25h12.5v-31.25h-12.5v-6.25h37.5v6.25h-12.5v31.25h12.5zM237.5 40.5h-31.25v-6.25h-6.25v-31.25h6.25v-6.25h31.25v6.25h6.25v31.25h-6.25zM212.5 3v31.25h18.75v-31.25zM262.5 40.5h-12.5v-43.75h37.5v6.25h6.25v18.75h-12.5v6.25h6.25v6.25h6.25v6.25h-18.75v-6.25h-6.25v-6.25h-6.25zM262.5 3v18.75h12.5v-6.25h6.25v-12.5z" fill="#ffffff" fill-rule="nonzero" stroke="none" stroke-width="1" stroke-linecap="butt" stroke-linejoin="miter" stroke-miterlimit="10" stroke-dasharray="" stroke-dashoffset="0" font-family="none" font-weight="none" font-size="none" text-anchor="none" style="mix-blend-mode: normal" data-fill-palette-color="secondary" opacity="1"></path></g></svg></g></svg></g></svg></g></svg></g></svg></g><defs></defs></svg><rect width="395.52" height="125.89317446808509" fill="none" stroke="none" visibility="hidden"></rect></g></svg></g></svg>